<?xml version="1.0" standalone="no"?><!DOCTYPE svg PUBLIC "-//W3C//DTD SVG 1.1//EN" "http://www.w3.org/Graphics/SVG/1.1/DTD/svg11.dtd"><svg t="1554437934010" class="icon" style="" viewBox="0 0 1024 1024" version="1.1" xmlns="http://www.w3.org/2000/svg" p-id="21997" xmlns:xlink="http://www.w3.org/1999/xlink" width="200" height="200"><defs><style type="text/css"></style></defs><path d="M325.696 706.976h373.536a7.616 7.616 0 0 0 7.584-7.872 194.56 194.56 0 0 0-136.96-178.016 7.552 7.552 0 0 1 0-14.464 194.432 194.432 0 0 0 136.64-177.792 7.584 7.584 0 0 0-7.552-7.872H325.728a7.552 7.552 0 0 0-7.552 7.872 194.432 194.432 0 0 0 136.8 177.856 7.552 7.552 0 0 1 0 14.464 194.56 194.56 0 0 0-136.8 177.952 7.584 7.584 0 0 0 7.552 7.872z m-260.352-193.248c0 246.048 199.456 445.504 445.504 445.504s445.504-199.456 445.504-445.504c0-112.576-41.952-218.688-116.32-300.192a28.448 28.448 0 0 0-42.016 38.304 386.944 386.944 0 0 1 101.44 261.856c0 214.624-173.984 388.64-388.64 388.64S122.176 728.352 122.176 513.696c0-214.624 173.984-388.64 388.64-388.64a28.448 28.448 0 1 0 0-56.896c-246.048 0-445.504 199.456-445.504 445.504z" fill="#e6e6e6" p-id="21998"></path></svg>