<?xml version="1.0" standalone="no"?><!DOCTYPE svg PUBLIC "-//W3C//DTD SVG 1.1//EN" "http://www.w3.org/Graphics/SVG/1.1/DTD/svg11.dtd"><svg t="1572243774839" class="icon" viewBox="0 0 1024 1024" version="1.1" xmlns="http://www.w3.org/2000/svg" p-id="6443" xmlns:xlink="http://www.w3.org/1999/xlink" width="200" height="200"><defs><style type="text/css"></style></defs><path d="M430.61248 204.8c0-11.30496-9.17504-20.48-20.48-20.48L256 184.32c-11.30496 0-20.48 9.17504-20.48 20.48l0 614.4c0 11.32544 9.17504 20.48 20.48 20.48l154.13248 0c11.30496 0 20.48-9.15456 20.48-20.48L430.61248 204.8zM389.65248 798.72 276.48 798.72 276.48 225.28l113.17248 0L389.65248 798.72z" p-id="6444"></path><path d="M706.56 184.32l-154.13248 0c-11.30496 0-20.48 9.17504-20.48 20.48l0 614.4c0 11.32544 9.17504 20.48 20.48 20.48L706.56 839.68c11.30496 0 20.48-9.15456 20.48-20.48L727.04 204.8C727.04 193.49504 717.86496 184.32 706.56 184.32zM686.08 798.72l-113.17248 0L572.90752 225.28 686.08 225.28 686.08 798.72z" p-id="6445"></path></svg>